# xmcd CD database file
#
# Track frame offsets:
#	150
#	18886
#	41431
#	61833
#	80857
#	96463
#	111927
#	135797
#	154740
#	171492
#	193307
#
# Disc length: 2779 seconds
#
# Revision: 8
# Processed by: cddbd v1.5.2PL0 Copyright (c) Steve Scherf et al.
# Submitted via: CDex 1.70beta2
#
DISCID=910ad90b
DTITLE=김윤아 - 琉璃假面
DYEAR=2004
DGENRE=Rock
TTITLE0=불안은 영혼을 잠식한다
TTITLE1=사랑, 지나고 나면 아무 것도 아닐 마음의 사치
TTITLE2=세상의 끝
TTITLE3=夜想曲
TTITLE4=나는 위험한 사랑을 상상한다
TTITLE5=봄이 오면 G
TTITLE6=Melancholia
TTITLE7=미저리
TTITLE8=봄이 오면 P
TTITLE9=증오는 나의 힘
TTITLE10=girl talk
EXTD=2004 짹챔?짹쩐횈 쨉횓 쨔첩횂째 쩌횜쨌횓 쩐횢쨔체 YEAR: 2004
EXTT0=
EXTT1=
EXTT2=
EXTT3=
EXTT4=
EXTT5=
EXTT6=
EXTT7=
EXTT8=
EXTT9=
EXTT10=
PLAYORDER=
